<svg xmlns="http://www.w3.org/2000/svg" version="1.1" xmlns:xlink="http://www.w3.org/1999/xlink" xmlns:svgjs="http://svgjs.dev/svgjs" width="2000" height="2250" viewBox="0 0 2000 2250"><g transform="matrix(1,0,0,1,3.410605131648481e-13,0)"><svg viewBox="0 0 320 360" data-background-color="#ffffff" preserveAspectRatio="xMidYMid meet" height="2250" width="2000" xmlns="http://www.w3.org/2000/svg" xmlns:xlink="http://www.w3.org/1999/xlink"><g id="tight-bounds" transform="matrix(1,0,0,1,0,0)"><svg viewBox="0 0 320 360" height="360" width="320"><g><svg></svg></g><g><svg viewBox="0 0 320 360" height="360" width="320"><g><path xmlns="http://www.w3.org/2000/svg" d="M20.961 227.22l3.726 4.658-1.863-6.056c-0.466-2.795-3.726 0.466-1.863 1.398M25.153 224.425c1.397 2.329 2.795 4.658 2.795 6.987 0 3.261 2.795 4.658 5.123 5.589-3.261-3.726-5.124-13.974-7.918-12.576M204.017 26.929c7.918 0 15.371-0.932 23.756 0.931 20.495 5.124 37.729 15.371 49.374 29.811l32.606 52.169c1.397 13.042 4.192 27.482 3.726 43.319 3.261 0 2.795-4.658 6.521-5.59-3.726 9.316-5.59 20.961-6.521 34.469-2.329-7.453 0-18.632 0.466-24.687-3.261 5.124-5.124 1.397-5.124-0.932 0.466-3.726-1.397-3.261-2.795-4.658-5.124-4.658-8.384-9.782-12.11-17.7 2.329-6.055 2.795-14.905-4.658-19.563-2.329-1.397-5.124-3.726-6.521-7.453-1.863-5.124-5.124-11.179-4.193-19.097 0.466-2.329-6.987 5.124-11.179 1.863-18.166-12.576-36.332-27.016-58.224-39.127-11.645 0-20.029-4.192-24.221-9.316-3.726-4.658-0.932-10.713 4.658-11.179 3.261 0 6.987-0.932 9.782 0.932 0.466-1.863 2.329-4.192 4.657-4.192M157.904 16.215l0.932 0.466c4.658 0.932 6.987 7.453 12.11 5.124 0 3.261 0.466 6.521-0.466 8.85-1.397 3.726-5.59 3.726-8.85 3.726-31.208-1.863-49.374 11.179-68.471 22.358-5.124 3.261-10.713 5.59-14.906 9.782-20.029 18.632-41.921 35.866-47.045 70.335l-4.192 38.195c-0.466 4.192-5.124 8.384-4.192 13.508l3.26 22.824c-3.261-3.261-5.124 0.932-4.192 2.795 0.466 1.397 2.329 6.055 5.124 1.863 3.726 6.987 7.453 20.495 12.576 26.55 15.837 18.632 36.332 35.4 53.101 52.169 4.192-0.932 7.453-0.932 8.384-3.727 1.397 2.795-1.397 5.59-3.726 6.056 7.453 4.658 15.837 8.85 27.016 9.781 14.44 0.932 27.948 3.261 40.524 6.522 6.521-1.863 13.042-2.795 20.029-3.261 2.329 0 3.726-3.726 6.521-4.658l0.466-4.658c2.795 4.192 2.329-1.397 0.466-4.192 3.261 2.795 4.192 5.124 5.589 6.987 0-1.397 3.726-6.521 3.727-0.466l0.931-6.055c1.397-0.932 1.863 5.124 3.261 0.931 1.397-4.192 4.192-0.932 6.987-2.329-0.932 1.863-0.466 5.59 2.794 3.261l3.727-3.261c2.329 5.59 6.055 3.261 7.918 2.329 20.495-13.042 40.99-28.413 60.553-43.784l-0.466 6.055 2.329-7.453c2.329 2.329 4.192 0.466 5.124-0.931 2.795-4.658 6.521-9.316 12.577-13.508-7.453 20.029-16.303 35.866-27.482 48.908l-4.658 5.59c0 3.261-0.932 7.453-4.658 7.918-1.863 0.466-5.59-0.932-8.384 1.863-1.397 1.863 3.261 5.59-0.466 2.795-3.261-2.329-6.521 0-10.248 0.932-2.795 0.932 1.863 3.726 2.795 5.589 0.932 1.863 1.863 3.726 1.398 6.056l-5.124-5.59c-6.055 3.261-9.782 9.316-14.906 13.974-2.329 1.863-1.397 5.124-1.397 7.918-3.261 0-6.987-0.932-8.85 0.932-1.397 1.863-0.932 4.658-0.932 7.453-4.658-0.466-5.124-7.453-9.315-6.056-4.192 0.932-8.85 1.397-12.577 3.727 2.795 5.59-4.658 2.329-3.726 3.26-6.987-4.192-13.042-7.453-20.495-4.658-15.837-5.124-35.4-2.795-49.84-0.931 0-2.329 0.466-4.658-0.466-5.124-0.932 2.329-3.726 1.397-3.26 1.397-8.85-6.055-17.7-9.782-27.016-14.905-8.384 0.932-16.303-3.261-18.632-5.59-6.521-6.055-13.974-2.795-20.029-4.192-13.042-3.261-17.7-16.769-19.098-26.084-0.932-4.658-4.658-6.521-6.055-6.056-6.055-19.563-15.371-37.263-22.824-55.429-1.863-4.658-1.397-9.316-1.397-14.44 2.329 0.932 4.658 0.466 4.192-2.794-2.329-15.371-7.918-27.016-13.974-38.195 3.261-15.837 3.726-34.469 11.179-48.443 6.521-12.576 18.632-19.098 27.016-29.811 2.795-3.726 2.795-8.85 5.59-12.11 9.316-9.316 18.632-19.098 28.879-27.482 4.658-3.726 10.247 0 17.234-1.397 2.329-8.384 11.645-15.837 20.495-13.508 3.726 0.932 11.179-8.85 13.508-9.782 3.726-1.397 1.863 3.726 1.863 6.987 8.85-6.987 20.961-10.713 32.14-14.906" fill="#636365" fill-rule="nonzero" stroke="none" stroke-width="1" stroke-linecap="butt" stroke-linejoin="miter" stroke-miterlimit="10" stroke-dasharray="" stroke-dashoffset="0" font-family="none" font-weight="none" font-size="none" text-anchor="none" style="mix-blend-mode: normal" data-fill-palette-color="tertiary"></path></g><g transform="matrix(1,0,0,1,64,92.07244501940492)"><svg viewBox="0 0 192 175.85510996119015" height="175.85510996119015" width="192"><g><svg viewBox="0 0 192 175.85510996119015" height="175.85510996119015" width="192"><g><svg viewBox="0 0 192 175.85510996119015" height="175.85510996119015" width="192"><g><svg viewBox="0 0 192 175.85510996119015" height="175.85510996119015" width="192"><g id="textblocktransform"><svg viewBox="0 0 192 175.85510996119015" height="175.85510996119015" width="192" id="textblock"><g><svg viewBox="0 0 192 175.85510996119015" height="175.85510996119015" width="192"><g transform="matrix(1,0,0,1,0,0)"><svg width="192" viewBox="1.399999976158142 -35.400001525878906 38.64999771118164 35.400001525878906" height="175.85510996119015" data-palette-color="#636365"><path d="M22.8 0L22.8 0 22.8-1Q24.35-1.1 25.1-1.4 25.85-1.7 26.1-2.6 26.35-3.5 26.35-5.3L26.35-5.3 26.35-30.1Q26.35-31.95 26.1-32.83 25.85-33.7 25.08-34.02 24.3-34.35 22.8-34.4L22.8-34.4 22.8-35.4Q24.35-35.35 26.78-35.3 29.2-35.25 31.65-35.25L31.65-35.25Q34.2-35.25 36.45-35.3 38.7-35.35 40.05-35.4L40.05-35.4 40.05-34.4Q38.55-34.35 37.77-34.02 37-33.7 36.75-32.83 36.5-31.95 36.5-30.1L36.5-30.1 36.5-5.3Q36.5-3.5 36.77-2.6 37.05-1.7 37.8-1.4 38.55-1.1 40.05-1L40.05-1 40.05 0Q38.7-0.1 36.45-0.13 34.2-0.15 31.65-0.15L31.65-0.15Q29.2-0.15 26.78-0.13 24.35-0.1 22.8 0ZM1.4 0L1.4 0 1.4-1Q2.95-1.1 3.7-1.4 4.45-1.7 4.7-2.6 4.95-3.5 4.95-5.3L4.95-5.3 4.95-30.1Q4.95-31.95 4.7-32.83 4.45-33.7 3.68-34.02 2.9-34.35 1.4-34.4L1.4-34.4 1.4-35.4Q2.85-35.35 5.23-35.3 7.6-35.25 10.3-35.25L10.3-35.25Q12.65-35.25 14.93-35.3 17.2-35.35 18.65-35.4L18.65-35.4 18.65-34.4Q17.15-34.35 16.38-34.02 15.6-33.7 15.35-32.83 15.1-31.95 15.1-30.1L15.1-30.1 15.1-5.3Q15.1-3.5 15.38-2.6 15.65-1.7 16.4-1.4 17.15-1.1 18.65-1L18.65-1 18.65 0Q17.2-0.1 14.93-0.13 12.65-0.15 10.3-0.15L10.3-0.15Q7.6-0.15 5.23-0.13 2.85-0.1 1.4 0ZM30.6-17.3L10.85-17.3 10.85-18.3 30.6-18.3 30.6-17.3Z" opacity="1" transform="matrix(1,0,0,1,0,0)" fill="#636365" class="undefined-text-0" data-fill-palette-color="primary" id="text-0"></path></svg></g></svg></g></svg></g></svg></g><g></g></svg></g></svg></g></svg></g></svg></g><defs></defs></svg><rect width="320" height="360" fill="none" stroke="none" visibility="hidden"></rect></g></svg></g></svg>